<?xml version="1.0" standalone="no"?>
<!DOCTYPE svg PUBLIC "-//W3C//DTD SVG 20010904//EN"
 "http://www.w3.org/TR/2001/REC-SVG-20010904/DTD/svg10.dtd">
<svg version="1.0" xmlns="http://www.w3.org/2000/svg"
 width="512.000000pt" height="512.000000pt" viewBox="0 0 512.000000 512.000000"
 preserveAspectRatio="xMidYMid meet">

<g transform="translate(0.000000,512.000000) scale(0.100000,-0.100000)"
fill="rgb(246,143,111)" stroke="none">
<path d="M0 3140 l0 -1980 230 0 230 0 0 -195 0 -195 230 0 230 0 0 -190 0
-190 225 0 225 0 0 -195 0 -195 1086 0 1087 0 118 85 117 85 127 0 127 0 103
-75 c57 -41 110 -78 119 -81 10 -4 108 47 261 136 135 78 245 144 245 147 0 2
-7 64 -15 137 l-16 133 66 114 66 114 127 55 127 56 0 289 0 289 -127 56 -128
55 -65 114 -66 113 16 133 c8 74 15 136 15 138 0 3 -54 36 -120 73 l-120 69 0
538 0 537 -75 0 -75 0 0 -490 c0 -269 -3 -490 -7 -490 -5 0 -26 12 -48 25 -22
14 -45 25 -52 25 -7 0 -61 -36 -121 -80 l-109 -80 -128 0 -127 0 -103 75 c-57
41 -110 78 -119 81 -10 4 -105 -46 -253 -131 -131 -75 -242 -141 -246 -145 -5
-4 -2 -68 6 -141 l15 -134 -65 -115 -65 -115 -127 -55 -126 -56 -3 -287 -2
-288 87 -40 c178 -79 170 -73 238 -194 l63 -110 -15 -129 c-7 -71 -12 -134
-10 -140 3 -6 55 -39 116 -74 61 -35 111 -65 111 -68 0 -2 -396 -4 -880 -4
l-880 0 2 1828 3 1827 1423 3 1422 2 0 -175 0 -175 75 0 75 0 0 250 0 250
-225 0 -225 0 0 195 0 195 -230 0 -230 0 0 190 0 190 -225 0 -225 0 0 195 0
195 -1155 0 -1155 0 0 -75 0 -75 1080 0 1081 0 -3 -117 -3 -118 -1272 -3
-1273 -2 0 -850 0 -850 75 0 75 0 0 775 0 775 1425 0 1425 0 0 -115 0 -115
-1270 0 -1270 0 -2 -1712 -3 -1713 -152 -3 -153 -3 0 981 0 980 -75 0 -75 0 0
-785 0 -785 -150 0 -150 0 0 1830 0 1830 270 0 270 0 0 75 0 75 -350 0 -350 0
0 -1980z m3918 938 l3 -118 -1276 0 -1275 0 0 -1710 0 -1710 -150 0 -150 0 0
1830 0 1830 1423 -2 1422 -3 3 -117z m-283 -1943 l89 -65 181 0 180 0 90 65
c49 36 93 65 98 65 4 0 80 -42 168 -92 158 -92 160 -93 155 -123 -3 -16 -8
-70 -11 -120 l-5 -90 87 -150 88 -149 103 -44 102 -45 0 -192 0 -193 -102 -45
-103 -45 -88 -148 -87 -149 5 -90 c3 -49 8 -104 11 -121 5 -30 4 -31 -156
-123 -94 -54 -167 -90 -176 -87 -9 3 -53 33 -98 66 l-83 60 -178 0 -178 0 -83
-60 c-45 -33 -89 -63 -97 -66 -9 -3 -83 34 -177 88 l-162 93 6 35 c3 20 8 74
11 120 l5 85 -88 150 -88 149 -102 44 -102 45 0 192 0 191 102 45 103 45 89
154 90 155 -12 114 c-6 63 -10 116 -9 117 18 14 315 183 322 183 6 1 51 -28
100 -64z"/>
<path d="M3210 1390 c-80 -104 -144 -194 -142 -201 4 -14 285 -378 293 -378 3
-1 24 13 45 30 22 17 47 37 57 44 17 12 12 21 -70 127 -49 62 -101 129 -115
148 l-27 36 66 84 c37 47 88 113 115 147 l49 62 -58 45 c-32 26 -60 46 -63 45
-3 0 -70 -85 -150 -189z"/>
<path d="M4386 1534 l-57 -45 68 -87 c37 -48 88 -114 115 -146 28 -36 44 -64
39 -70 -4 -6 -57 -73 -116 -149 -100 -129 -106 -139 -89 -152 11 -7 36 -27 58
-44 21 -17 42 -28 47 -25 16 9 292 368 292 379 0 10 -277 370 -292 380 -4 2
-33 -16 -65 -41z"/>
<path d="M3868 1262 c-147 -114 -272 -212 -278 -218 -7 -7 2 -27 32 -67 24
-31 45 -56 48 -57 6 0 519 395 544 420 18 17 17 19 -24 74 -23 31 -45 56 -49
55 -3 0 -126 -93 -273 -207z"/>
<path d="M2001 3551 c-126 -47 -195 -140 -226 -307 -11 -55 -15 -154 -15 -370
l0 -294 75 0 75 0 0 180 0 180 225 0 225 0 0 -180 0 -180 74 0 74 0 7 198 c16
420 -14 591 -123 700 -63 63 -122 85 -237 89 -81 3 -110 0 -154 -16z m235
-155 c82 -38 124 -117 124 -232 l0 -64 -226 0 -227 0 6 69 c7 81 37 157 77
196 60 57 162 70 246 31z"/>
<path d="M2660 3075 l0 -496 78 3 77 3 3 208 2 207 180 0 c217 0 261 12 332
88 139 148 83 404 -101 467 -35 12 -98 15 -308 15 l-263 0 0 -495z m531 330
c65 -34 88 -126 49 -190 -35 -57 -67 -65 -254 -65 l-166 0 0 135 0 135 170 0
c135 0 177 -3 201 -15z"/>
<path d="M3560 3075 l0 -496 78 3 77 3 0 490 0 490 -77 3 -78 3 0 -496z"/>
</g>
</svg>
