<?xml version="1.0" standalone="no"?>
<!DOCTYPE svg PUBLIC "-//W3C//DTD SVG 20010904//EN"
 "http://www.w3.org/TR/2001/REC-SVG-20010904/DTD/svg10.dtd">
<svg version="1.0" xmlns="http://www.w3.org/2000/svg"
 width="2048.000000pt" height="2048.000000pt" viewBox="0 0 2048.000000 2048.000000"
 preserveAspectRatio="xMidYMid meet">

<g transform="translate(0.000000,2048.000000) scale(0.100000,-0.100000)"
fill="#000000" stroke="none">
<path d="M9875 20474 c-1068 -53 -1852 -195 -2781 -502 -1323 -438 -2505
-1119 -3594 -2071 -185 -161 -720 -693 -882 -876 -648 -733 -1156 -1485 -1568
-2320 -208 -421 -365 -797 -504 -1205 -306 -896 -461 -1666 -528 -2620 -16
-237 -16 -1027 0 -1255 84 -1153 297 -2093 709 -3130 632 -1589 1732 -3083
3082 -4185 1005 -821 2156 -1444 3396 -1839 798 -254 1529 -391 2410 -453 232
-16 1015 -16 1240 0 771 56 1378 159 2044 347 2106 596 3958 1829 5335 3551
747 935 1322 1979 1706 3099 484 1414 643 2889 474 4395 -103 924 -356 1877
-732 2766 -636 1502 -1637 2851 -2900 3906 -902 754 -1923 1347 -3027 1758
-958 356 -1862 551 -2875 620 -155 11 -873 21 -1005 14z m710 -1784 c917 -42
1725 -208 2580 -530 1532 -576 2868 -1577 3846 -2880 675 -899 1173 -1950
1448 -3055 267 -1073 311 -2246 125 -3350 -207 -1227 -737 -2495 -1475 -3527
-510 -713 -1144 -1359 -1854 -1889 -1627 -1214 -3575 -1797 -5570 -1668 -1756
113 -3454 789 -4823 1921 -398 329 -853 788 -1179 1190 -958 1181 -1612 2665
-1823 4135 -63 441 -83 737 -83 1208 0 468 20 766 84 1210 190 1333 767 2723
1585 3825 852 1148 1973 2054 3274 2647 1235 563 2551 823 3865 763z" fill="#f4cd99"/>
<path d="M8384 14192 c-193 -202 -757 -793 -1255 -1313 -2500 -2614 -2514
-2629 -2514 -2653 0 -17 330 -368 1285 -1367 707 -739 1632 -1707 2055 -2151
l770 -806 1495 -1 1494 -1 -60 63 c-246 253 -2719 2784 -2878 2945 l-200 202
3417 0 3417 0 0 1115 0 1115 -3414 2 -3414 3 391 401 c216 221 919 940 1562
1598 644 658 1172 1201 1173 1206 2 7 -538 10 -1485 10 l-1488 0 -351 -368z" fill="#f4cd99"/>
</g>
</svg>
