<?xml version="1.0" standalone="no"?>
<!DOCTYPE svg PUBLIC "-//W3C//DTD SVG 20010904//EN"
 "http://www.w3.org/TR/2001/REC-SVG-20010904/DTD/svg10.dtd">
<svg version="1.0" xmlns="http://www.w3.org/2000/svg"
 width="1000.000000pt" height="1000.000000pt" viewBox="0 0 1000.000000 1000.000000"
 preserveAspectRatio="xMidYMid meet">

<g transform="translate(0.000000,1000.000000) scale(0.100000,-0.100000)"
fill="white" stroke="none">
<path d="M3645 7487 c-35 -54 31 -372 92 -439 18 -21 63 -24 81 -6 18 18 14
51 -12 99 -37 67 -71 239 -48 239 5 0 35 -9 67 -20 95 -33 200 -40 398 -28
133 8 196 8 248 -1 70 -11 174 -57 254 -111 66 -44 67 -44 193 19 198 99 183
96 532 96 292 0 308 1 364 23 33 12 63 22 68 22 13 0 10 -51 -8 -141 -16 -80
-16 -81 4 -102 31 -30 73 -14 89 34 16 49 33 178 33 249 0 51 -3 62 -24 75
-21 14 -32 13 -147 -22 l-124 -37 -165 4 c-401 10 -443 5 -628 -85 l-113 -55
-37 24 c-71 45 -177 93 -232 106 -59 14 -162 17 -435 10 l-170 -4 -111 37
c-130 43 -148 45 -169 14z"/>
<path d="M4103 6912 c-56 -20 -117 -62 -133 -92 -7 -12 -7 -27 0 -44 13 -34
50 -34 94 -1 80 61 161 71 244 29 202 -101 129 -408 -98 -408 -117 0 -220 101
-220 216 0 32 -18 48 -52 48 -82 0 -51 -170 49 -272 64 -65 129 -92 223 -92
93 0 155 25 222 91 68 66 93 129 92 228 0 91 -20 144 -80 213 -74 87 -227 125
-341 84z" fill="orangered"/>
<path d="M5397 6916 c-48 -17 -116 -62 -124 -81 -3 -8 -2 -26 1 -40 7 -29 50
-44 75 -27 110 78 212 79 296 1 148 -137 55 -369 -148 -369 -110 0 -193 75
-206 188 -8 68 -23 92 -57 92 -42 0 -57 -27 -51 -96 6 -76 54 -172 106 -213
75 -59 119 -75 211 -76 73 0 93 4 142 28 62 31 116 84 149 149 32 62 38 179
13 250 -26 72 -120 168 -188 191 -59 20 -166 21 -219 3z"/>
<path d="M4782 6319 c-126 -118 -142 -137 -141 -162 0 -12 46 -94 103 -182 91
-143 105 -160 132 -163 19 -2 35 3 45 15 39 45 199 313 199 332 0 11 -17 40
-37 63 -51 56 -190 178 -204 178 -6 0 -50 -37 -97 -81z m162 -113 l59 -53 -57
-92 c-32 -50 -61 -91 -65 -91 -4 0 -33 40 -63 89 l-56 89 57 56 c31 31 58 56
61 56 3 -1 32 -25 64 -54z"/>
<path d="M5872 6288 c-17 -17 -16 -29 12 -139 92 -360 -13 -737 -277 -999
-361 -359 -913 -408 -1339 -119 -229 156 -397 428 -439 709 -11 81 -8 299 6
347 5 14 0 28 -14 42 -26 26 -42 26 -70 4 -18 -15 -23 -36 -33 -131 -41 -392
136 -792 455 -1033 103 -78 276 -162 402 -196 92 -25 115 -27 290 -27 163 0
201 2 271 21 437 116 740 418 856 853 15 54 21 119 25 235 4 137 2 175 -17
265 -28 137 -46 174 -85 178 -17 2 -36 -3 -43 -10z"/>
<path d="M5533 5833 c-7 -2 -38 -44 -69 -91 -135 -207 -334 -344 -564 -388
-97 -19 -121 -46 -81 -95 18 -23 20 -23 95 -10 236 39 447 173 603 381 67 90
95 148 81 174 -17 33 -36 41 -65 29z"/>
<path d="M2640 3857 c-32 -16 -41 -74 -14 -94 26 -19 78 -16 97 5 46 50 -20
120 -83 89z"/>
<path d="M3240 3575 l0 -255 55 0 55 0 0 118 c0 111 1 120 23 140 16 15 36 22
65 22 63 0 72 -20 72 -162 l0 -118 55 0 55 0 0 128 c0 162 -15 202 -86 234
-53 23 -119 20 -161 -7 l-23 -15 0 85 0 85 -55 0 -55 0 0 -255z"/>
<path d="M4720 3745 c0 -47 -1 -85 -3 -85 -1 0 -20 9 -42 20 -22 11 -53 20
-70 20 -39 -1 -101 -23 -127 -47 -81 -73 -76 -236 8 -302 58 -46 157 -50 209
-9 l25 19 0 -20 c0 -18 6 -21 50 -21 l50 0 0 255 0 255 -50 0 -50 0 0 -85z
m-51 -149 c15 -8 32 -26 39 -41 48 -106 -69 -205 -149 -126 -24 24 -29 38 -29
76 0 38 5 52 29 76 33 32 67 37 110 15z"/>
<path d="M5330 3575 l0 -255 55 0 55 0 0 255 0 255 -55 0 -55 0 0 -255z"/>
<path d="M6270 3575 l0 -255 55 0 55 0 0 48 c0 39 5 53 26 73 l26 24 37 -45
c87 -106 80 -101 148 -98 l61 3 -84 105 -84 105 77 77 78 78 -64 0 -64 0 -76
-72 -76 -73 -3 143 -3 142 -54 0 -55 0 0 -255z"/>
<path d="M2499 3690 c-14 -4 -38 -15 -52 -25 -26 -17 -27 -17 -27 4 0 19 -6
21 -50 21 l-50 0 0 -185 0 -185 55 0 55 0 0 111 c0 109 0 111 29 140 20 19 40
29 60 29 30 0 31 1 31 50 0 53 -3 55 -51 40z"/>
<path d="M2936 3685 c-58 -21 -88 -46 -113 -95 -48 -94 -14 -204 77 -250 51
-26 110 -33 164 -19 44 11 106 56 106 77 0 6 -16 20 -36 31 l-36 21 -30 -25
c-73 -61 -171 3 -155 102 8 48 35 73 84 80 32 4 44 0 70 -21 l31 -26 36 21
c20 11 36 25 36 31 0 20 -58 66 -96 77 -51 14 -90 13 -138 -4z"/>
<path d="M3815 3693 c-31 -6 -105 -34 -105 -39 0 -5 30 -66 35 -72 2 -2 17 4
34 12 44 23 116 21 141 -4 36 -36 26 -50 -37 -50 -124 0 -183 -37 -183 -115 0
-35 6 -52 24 -70 48 -48 148 -55 201 -13 25 19 25 19 25 -1 0 -18 6 -21 50
-21 l50 0 0 125 c0 135 -9 174 -51 212 -38 34 -119 50 -184 36z m125 -241 c0
-42 -29 -64 -80 -60 -49 3 -72 27 -54 55 13 20 44 31 97 32 34 1 37 -1 37 -27z"/>
<path d="M4317 3686 c-20 -8 -44 -19 -52 -26 -13 -10 -15 -9 -15 9 0 19 -6 21
-50 21 l-50 0 0 -185 0 -185 55 0 55 0 0 114 0 114 31 26 c18 15 43 26 60 26
28 0 29 1 29 50 0 55 -3 57 -63 36z"/>
<path d="M5037 3687 c-51 -16 -106 -62 -123 -103 -20 -47 -18 -123 5 -164 42
-80 150 -125 239 -101 40 11 112 63 112 82 0 5 -17 17 -38 28 l-39 20 -22 -22
c-16 -16 -34 -22 -67 -22 -61 0 -94 35 -94 101 0 90 92 136 157 80 l28 -24 37
19 c21 11 38 23 38 28 0 22 -62 69 -104 80 -54 13 -80 13 -129 -2z"/>
<path d="M5625 3691 c-53 -15 -85 -30 -85 -41 0 -6 7 -24 15 -40 15 -29 16
-29 50 -14 19 7 54 14 79 14 36 0 48 -5 65 -26 12 -15 21 -31 21 -35 0 -5 -26
-9 -57 -9 -87 -1 -134 -15 -165 -50 -94 -104 75 -234 200 -154 19 13 22 13 22
-1 0 -12 13 -15 56 -15 l57 0 -5 134 c-6 151 -18 185 -76 219 -36 21 -131 31
-177 18z m142 -227 c18 -46 -51 -91 -110 -71 -24 8 -28 14 -25 41 2 25 8 32
33 37 57 12 95 10 102 -7z"/>
<path d="M6146 3690 c-15 -5 -37 -17 -47 -26 -18 -16 -19 -16 -19 4 0 20 -5
22 -55 22 l-55 0 0 -185 0 -185 55 0 55 0 0 100 c0 138 23 180 99 180 30 0 31
1 31 50 0 54 -5 57 -64 40z"/>
<path d="M7090 3686 c-19 -7 -43 -17 -52 -21 -13 -5 -18 -3 -18 9 0 13 -11 16
-50 16 l-50 0 0 -185 0 -185 55 0 55 0 0 115 c0 110 1 117 25 140 32 33 93 34
121 4 16 -18 20 -40 22 -140 l4 -119 49 0 49 0 0 138 c0 148 -10 182 -63 216
-34 23 -106 29 -147 12z"/>
<path d="M2620 3505 l0 -185 55 0 55 0 0 185 0 185 -55 0 -55 0 0 -185z"/>
<path d="M7380 3650 l0 -40 90 0 c50 0 90 -3 90 -6 0 -3 -40 -53 -90 -111 -74
-88 -90 -112 -90 -140 l0 -33 165 0 165 0 0 40 0 40 -95 0 c-52 0 -95 2 -95 5
0 3 41 53 90 111 75 88 90 111 90 140 l0 34 -160 0 -160 0 0 -40z"/>
<path d="M6735 3425 c-14 -13 -25 -33 -25 -45 0 -26 43 -70 68 -70 28 0 60 30
68 62 4 21 0 33 -20 52 -32 33 -60 33 -91 1z"/>
<path d="M4750 2270 l0 -350 25 0 c23 0 25 4 25 45 0 25 3 45 6 45 3 0 15 -11
26 -25 54 -69 198 -93 283 -48 109 58 158 180 122 304 -33 110 -113 169 -230
169 -79 0 -127 -18 -168 -61 l-29 -31 0 151 0 151 -30 0 -30 0 0 -350z m353
60 c54 -37 82 -93 81 -165 0 -115 -61 -186 -165 -193 -76 -6 -101 1 -145 40
-47 41 -64 83 -64 153 0 83 34 141 105 180 45 24 142 16 188 -15z"/>
<path d="M5586 2548 c-7 -18 -69 -152 -136 -298 -67 -146 -129 -280 -136 -297
l-14 -33 33 0 c32 0 35 3 69 83 l36 82 194 2 193 3 36 -83 c35 -79 38 -82 72
-85 l35 -3 -151 330 -152 331 -32 0 c-27 0 -35 -5 -47 -32z m129 -216 c42 -95
75 -175 72 -178 -2 -2 -74 -3 -160 -2 l-156 3 65 145 c36 80 72 160 80 179 8
19 16 32 18 30 2 -2 38 -82 81 -177z"/>
<path d="M2487 2406 c-40 -15 -62 -30 -89 -61 -17 -19 -17 -19 -18 23 0 40 -1
42 -30 42 l-30 0 0 -250 0 -250 29 0 29 0 4 163 c4 193 15 227 88 265 53 27
93 28 139 4 70 -35 76 -52 79 -253 l4 -179 30 0 30 0 -4 188 c-3 183 -4 188
-30 233 -44 74 -145 107 -231 75z"/>
<path d="M7463 2409 c-93 -12 -150 -75 -140 -153 8 -61 47 -90 144 -111 119
-25 163 -43 174 -72 19 -51 -14 -91 -88 -104 -56 -11 -142 3 -190 31 -32 19
-33 19 -43 0 -16 -31 -12 -36 40 -59 153 -66 333 -16 346 95 10 81 -41 123
-178 149 -74 15 -99 24 -120 46 -34 34 -35 59 -4 96 21 25 32 28 99 31 59 3
84 0 120 -16 l45 -20 11 24 c9 21 7 25 -19 39 -40 21 -134 32 -197 24z"/>
<path d="M2880 2385 l0 -25 140 0 c77 0 140 -2 140 -5 0 -2 -65 -93 -145 -202
-88 -119 -145 -206 -145 -220 l0 -23 190 0 190 0 0 30 0 30 -150 0 -149 0 144
197 c88 119 145 206 145 220 l0 23 -180 0 -180 0 0 -25z"/>
<path d="M3260 2403 c0 -5 40 -114 89 -243 l89 -235 34 0 33 0 71 184 c39 101
76 191 81 200 7 11 19 -9 48 -85 130 -337 114 -304 149 -304 l31 0 90 237 c50
130 92 240 93 245 2 4 -9 8 -25 8 -27 0 -30 -5 -107 -210 -43 -116 -81 -208
-84 -205 -3 3 -40 96 -82 208 -74 196 -78 202 -106 205 l-29 2 -79 -210 c-43
-116 -82 -207 -86 -203 -4 4 -40 99 -81 210 -72 196 -75 203 -101 203 -16 0
-28 -3 -28 -7z"/>
<path d="M4254 2391 c-49 -22 -111 -92 -124 -140 -28 -100 -6 -198 59 -263 79
-79 210 -99 310 -49 53 27 65 45 51 71 -10 19 -13 20 -28 7 -57 -50 -176 -64
-242 -28 -47 25 -89 80 -97 124 l-6 37 213 0 213 0 -6 49 c-11 89 -64 164
-139 195 -51 22 -153 20 -204 -3z m202 -56 c28 -16 49 -39 63 -68 39 -80 44
-77 -159 -77 -203 0 -198 -3 -159 77 43 89 164 121 255 68z"/>
<path d="M6070 2070 l0 -340 35 0 35 0 0 136 0 136 41 -35 c25 -22 61 -40 91
-47 181 -44 332 102 300 289 -14 82 -51 137 -117 173 -92 51 -239 32 -294 -38
-26 -34 -31 -30 -31 21 0 43 -1 45 -30 45 l-30 0 0 -340z m327 279 c72 -27
116 -98 117 -185 0 -118 -74 -194 -189 -194 -113 0 -188 78 -187 193 1 87 39
153 107 183 36 16 113 18 152 3z"/>
<path d="M6720 2070 l0 -340 30 0 30 0 0 135 c0 74 3 135 6 135 3 0 24 -15 46
-34 71 -61 187 -71 273 -23 162 91 160 354 -4 439 -95 50 -235 32 -288 -36
-12 -14 -24 -26 -27 -26 -3 0 -6 20 -6 45 0 43 -1 45 -30 45 l-30 0 0 -340z
m333 276 c70 -30 108 -95 108 -184 0 -116 -73 -192 -185 -192 -117 0 -190 75
-190 194 1 86 45 157 114 185 37 14 116 13 153 -3z"/>
</g>
</svg>
