<?xml version="1.0" standalone="no"?>
<!DOCTYPE svg PUBLIC "-//W3C//DTD SVG 20010904//EN"
 "http://www.w3.org/TR/2001/REC-SVG-20010904/DTD/svg10.dtd">
<svg version="1.0" xmlns="http://www.w3.org/2000/svg"
 width="512.000000pt" height="512.000000pt" viewBox="0 0 512.000000 512.000000"
 preserveAspectRatio="xMidYMid meet">

<g transform="translate(0.000000,512.000000) scale(0.100000,-0.100000)"
fill="rgb(246,143,111)" stroke="none">
<path d="M1355 4786 c-155 -39 -265 -146 -316 -306 l-17 -55 -127 -5 c-110 -4
-128 -7 -141 -24 -11 -16 -14 -64 -14 -226 0 -262 -8 -250 163 -250 l117 0 0
-150 0 -150 -120 0 c-170 0 -160 16 -160 -253 0 -168 3 -217 14 -233 12 -16
31 -20 138 -24 l123 -5 3 -147 3 -148 -114 0 c-100 0 -117 -3 -141 -21 l-26
-20 0 -218 c0 -271 -10 -255 161 -259 l119 -4 0 -149 0 -149 -120 0 c-170 0
-160 15 -160 -248 0 -264 -8 -252 163 -252 l117 0 0 -150 0 -150 -114 0 c-99
0 -117 -3 -140 -21 l-26 -20 0 -214 c0 -274 -9 -259 162 -263 l125 -4 12 -49
c16 -61 75 -152 131 -203 23 -21 72 -52 109 -70 l66 -31 1260 -3 1260 -2 72
72 73 73 -1308 0 c-1305 0 -1307 0 -1353 21 -76 35 -144 106 -163 170 -6 21
-4 22 104 26 162 5 155 -7 155 264 0 268 9 254 -161 254 l-114 0 0 150 0 150
114 0 c169 0 160 -12 164 242 3 195 2 205 -18 231 -21 27 -23 27 -141 27
l-119 0 0 150 0 150 111 0 c109 0 111 0 140 30 l30 30 -3 211 c-4 262 5 249
-164 249 l-114 0 0 150 0 150 119 0 c168 0 161 -10 161 255 0 265 7 255 -161
255 l-119 0 0 150 0 150 114 0 c169 0 160 -12 164 242 3 195 2 205 -18 231
-21 27 -23 27 -136 27 -72 0 -114 4 -114 10 0 21 43 96 74 128 17 19 54 46 81
60 l50 27 1315 0 1315 0 46 -21 c60 -28 125 -93 153 -153 l21 -46 0 -1872 0
-1873 78 77 77 78 0 1770 c0 1930 2 1848 -57 1958 -61 113 -183 202 -312 227
-84 16 -2601 12 -2666 -4z m-55 -616 l0 -100 -205 0 -205 0 0 100 0 100 205 0
205 0 0 -100z m0 -805 l0 -105 -205 0 -205 0 0 105 0 105 205 0 205 0 0 -105z
m0 -815 l0 -110 -205 0 -205 0 0 110 0 110 205 0 205 0 0 -110z m-2 -807 l3
-103 -206 0 -205 0 0 105 0 105 203 -2 202 -3 3 -102z m2 -813 l0 -109 -205 0
-205 0 0 109 0 110 205 0 205 0 0 -110z"/>
<path d="M1632 4310 c-22 -20 -22 -25 -22 -305 0 -272 1 -286 20 -305 25 -25
71 -26 101 -1 23 18 24 27 28 146 l3 127 39 -65 c66 -110 120 -109 185 1 l39
67 5 -126 c4 -106 8 -130 24 -148 26 -29 76 -28 104 2 22 23 22 30 22 304 l0
282 -26 20 c-60 47 -85 29 -179 -129 -42 -71 -79 -130 -81 -130 -1 0 -39 60
-83 134 -45 74 -88 137 -97 140 -30 11 -60 6 -82 -14z"/>
<path d="M2325 4305 l-25 -24 0 -274 c0 -262 1 -275 21 -301 l20 -26 153 0
c146 0 153 1 174 23 27 29 28 67 3 98 -17 22 -28 24 -120 27 l-101 4 0 49 0
49 94 0 c79 0 97 3 120 21 19 15 26 30 26 54 0 24 -7 39 -26 54 -23 18 -41 21
-120 21 l-94 0 0 50 0 50 98 0 c90 0 100 2 120 23 31 33 29 80 -4 106 -24 19
-40 21 -171 21 -139 0 -145 -1 -168 -25z"/>
<path d="M2835 4305 l-25 -24 0 -274 c0 -262 1 -275 21 -301 26 -33 77 -36
105 -5 16 18 20 42 24 176 l5 154 90 -118 c165 -216 181 -233 220 -233 24 0
39 7 54 26 20 26 21 39 21 301 l0 274 -25 24 c-29 30 -64 32 -96 6 -23 -18
-24 -26 -29 -177 l-5 -157 -129 167 c-71 92 -137 171 -147 176 -30 16 -59 11
-84 -15z"/>
<path d="M3495 4305 c-25 -24 -25 -27 -25 -199 0 -212 12 -257 90 -336 127
-126 330 -119 450 18 59 66 71 114 77 293 6 174 -2 219 -43 238 -35 16 -47 14
-78 -10 l-26 -20 0 -163 c0 -148 -2 -166 -22 -206 -34 -66 -79 -93 -148 -88
-62 4 -97 25 -127 73 -15 25 -19 59 -23 208 -5 173 -6 179 -29 198 -32 26 -67
24 -96 -6z"/>
<path d="M2694 3456 c-16 -12 -20 -30 -24 -122 l-5 -108 -55 -11 c-171 -35
-278 -92 -401 -215 -81 -81 -102 -109 -143 -192 -32 -65 -53 -125 -64 -182
l-17 -86 -63 0 c-109 0 -134 -31 -106 -134 29 -106 69 -178 132 -238 130 -125
149 -128 782 -128 303 0 531 4 569 11 171 27 302 149 355 328 36 124 15 161
-92 161 l-69 0 -12 67 c-55 297 -289 539 -585 602 l-81 17 -5 107 c-4 91 -8
108 -25 121 -25 19 -66 20 -91 2z m221 -406 c189 -58 342 -208 400 -393 42
-132 116 -117 -576 -117 l-602 0 7 40 c17 107 70 211 155 302 157 171 395 235
616 168z m585 -665 c0 -22 -47 -90 -86 -124 -81 -71 -80 -71 -674 -71 -594 0
-593 0 -674 71 -39 34 -86 102 -86 124 0 3 342 5 760 5 418 0 760 -2 760 -5z"/>
<path d="M1937 1779 c-35 -27 -37 -79 -5 -109 22 -20 30 -20 865 -20 l844 0
24 25 c30 29 32 64 6 96 l-19 24 -845 3 c-843 2 -844 2 -870 -19z"/>
<path d="M1930 1320 c-27 -27 -26 -81 1 -106 21 -18 45 -19 788 -15 847 4 801
0 801 68 0 20 -8 41 -20 53 -20 20 -33 20 -785 20 -752 0 -765 0 -785 -20z"/>
<path d="M1937 870 c-35 -28 -37 -77 -4 -108 l23 -22 578 0 577 0 24 25 c30
29 32 64 6 96 l-19 24 -579 3 c-575 2 -580 2 -606 -18z"/>
</g>
</svg>
