<?xml version="1.0" standalone="no"?>
<!DOCTYPE svg PUBLIC "-//W3C//DTD SVG 20010904//EN"
 "http://www.w3.org/TR/2001/REC-SVG-20010904/DTD/svg10.dtd">
<svg version="1.0" xmlns="http://www.w3.org/2000/svg"
 width="512.000000pt" height="512.000000pt" viewBox="0 0 512.000000 512.000000"
 preserveAspectRatio="xMidYMid meet">

<g transform="translate(0.000000,512.000000) scale(0.100000,-0.100000)"
fill="rgb(113,206,224)" stroke="none">
<path d="M2084 5110 c-12 -4 -31 -21 -43 -36 -20 -25 -21 -37 -21 -238 l0
-211 -134 -43 c-74 -25 -194 -74 -268 -111 l-133 -68 -150 148 c-152 149 -179
167 -232 154 -38 -9 -679 -650 -688 -687 -14 -54 5 -81 155 -233 l147 -150
-62 -125 c-35 -68 -85 -188 -111 -267 l-48 -142 -219 -3 -219 -3 -29 -33 -29
-32 0 -470 0 -470 29 -32 29 -33 220 -3 219 -3 42 -129 c24 -71 73 -191 111
-267 l68 -138 -148 -150 c-150 -152 -169 -179 -155 -233 9 -37 650 -678 688
-687 53 -14 80 5 232 155 l150 148 138 -68 c76 -38 197 -88 268 -111 l129 -43
0 -213 0 -213 29 -32 29 -33 476 -3 475 -3 33 30 33 29 3 219 3 219 142 48
c79 26 199 76 267 111 l125 62 150 -147 c152 -150 179 -169 233 -155 37 9 678
650 687 688 13 53 -5 80 -154 232 l-148 150 68 133 c37 74 86 194 111 268 l43
134 212 0 213 0 32 29 33 29 0 482 0 482 -33 29 -32 29 -213 0 -212 0 -43 133
c-23 74 -73 195 -110 270 l-68 136 147 148 c150 150 168 177 154 231 -9 37
-650 678 -687 687 -54 14 -81 -4 -231 -154 l-148 -147 -136 68 c-75 37 -196
87 -269 110 l-133 43 -3 218 -3 219 -33 29 -32 29 -463 -1 c-254 0 -472 -4
-483 -9z m816 -396 l0 -206 28 -28 c16 -16 49 -33 73 -39 183 -46 323 -104
590 -243 42 -22 63 -28 85 -22 18 5 81 58 172 148 l143 140 236 -237 237 -236
-140 -143 c-90 -91 -143 -154 -148 -172 -6 -22 0 -43 22 -85 139 -267 197
-407 243 -590 6 -24 23 -57 39 -73 l28 -28 206 0 206 0 0 -340 0 -340 -204 0
c-203 0 -205 0 -234 -25 -23 -19 -34 -43 -52 -112 -47 -177 -112 -335 -202
-491 -57 -99 -63 -118 -48 -157 6 -16 73 -92 148 -168 l137 -137 -237 -237
-237 -237 -143 141 c-160 157 -182 169 -246 136 -20 -11 -89 -47 -152 -81
-128 -68 -233 -109 -390 -153 -83 -23 -111 -35 -132 -59 l-28 -30 0 -205 0
-205 -340 0 -340 0 0 200 c0 125 -4 208 -11 224 -15 32 -53 50 -168 82 -161
43 -319 111 -476 203 -76 45 -107 50 -145 25 -14 -9 -85 -76 -158 -148 l-132
-131 -237 238 -238 237 131 132 c72 73 139 144 148 158 25 38 20 69 -25 145
-92 157 -160 315 -203 476 -32 115 -50 153 -82 168 -16 7 -99 11 -224 11
l-200 0 0 340 0 340 205 0 205 0 30 28 c24 21 36 49 59 132 44 157 85 262 153
390 34 63 70 132 81 152 33 64 21 86 -136 246 l-141 143 237 237 237 237 137
-137 c76 -75 152 -142 168 -148 39 -15 58 -9 157 48 156 90 314 155 491 202
69 18 93 29 112 52 25 29 25 31 25 234 l0 204 340 0 340 0 0 -206z"/>
<path d="M2504 4162 c-50 -40 -55 -109 -11 -149 31 -29 62 -36 101 -23 42 14
68 51 68 98 0 73 -101 120 -158 74z"/>
<path d="M2100 4116 c-179 -55 -333 -130 -478 -233 -445 -316 -703 -842 -679
-1382 20 -430 182 -797 483 -1093 441 -433 1071 -579 1654 -381 518 175 917
606 1054 1138 37 145 49 265 43 445 -8 264 -54 450 -167 675 -82 164 -173 288
-310 425 -180 180 -395 313 -629 390 -51 16 -106 30 -123 30 -44 0 -88 -48
-88 -95 0 -68 24 -89 148 -126 100 -31 275 -121 377 -194 149 -107 308 -278
394 -426 l22 -37 -333 -111 -333 -111 -227 -228 -228 -227 0 106 c0 202 -58
348 -195 485 -128 129 -282 194 -460 196 -178 1 -255 -35 -255 -120 0 -33 13
-48 157 -193 l156 -158 -26 -97 c-14 -54 -30 -101 -34 -105 -4 -4 -51 -19
-103 -33 l-95 -25 -156 154 c-155 155 -155 155 -201 155 -39 0 -50 -5 -71 -30
-32 -37 -47 -107 -47 -214 0 -196 91 -388 245 -516 117 -97 305 -158 457 -147
43 3 78 2 78 -2 0 -3 -117 -123 -260 -266 l-260 -259 -36 34 c-66 64 -160 184
-219 278 -197 317 -260 702 -175 1067 113 486 476 875 963 1032 93 30 111 40
128 67 27 44 24 80 -8 116 -37 40 -73 44 -163 16z m1851 -1271 c64 -290 19
-634 -118 -909 -41 -82 -133 -225 -184 -285 l-20 -25 -190 190 c-104 104 -189
193 -189 199 0 5 101 111 224 235 l224 225 98 290 98 290 19 -60 c10 -33 27
-100 38 -150z m-338 8 c-25 -76 -48 -140 -50 -142 -4 -6 -183 171 -183 180 0
6 249 96 272 98 3 1 -14 -61 -39 -136z m-283 -198 l135 -135 -183 -182 -182
-183 -135 135 c-74 74 -135 139 -135 145 0 13 342 355 355 355 6 0 71 -61 145
-135z m-977 -1247 l-201 -201 -46 13 c-25 7 -46 15 -46 19 0 3 48 54 106 111
122 121 141 153 120 204 -18 43 -51 66 -95 66 -31 0 -49 -15 -182 -146 l-148
-147 -45 29 -46 29 253 253 252 252 140 -140 140 -140 -202 -202z m486 -72
l134 -134 -39 -11 c-116 -33 -216 -45 -371 -45 -89 -1 -165 3 -169 7 -7 7 292
317 306 317 3 0 66 -60 139 -134z"/>
</g>
</svg>
